<svg xmlns="http://www.w3.org/2000/svg" viewBox="0 0 24.15 19.031"><path d="M23.65 5.011h-2.64L16.09.139a.519.519 0 00-.73 0 .513.513 0 000 .725l4.19 4.146H4.91L9.09.864A.5.5 0 009.1.139a.519.519 0 00-.73 0L3.45 5.011H.52a.513.513 0 000 1.025h.82l1.84 10.341a3.233 3.233 0 003.19 2.648h11.32a3.215 3.215 0 003.18-2.648l1.85-10.341h.93a.513.513 0 000-1.025zm-9.05 6.02h-1.89V9.153a.625.625 0 00-1.25 0v1.878H9.57a.621.621 0 100 1.241h1.89v1.878a.625.625 0 001.25 0v-1.878h1.89a.621.621 0 100-1.241z"/></svg>