<svg xmlns="http://www.w3.org/2000/svg" viewBox="0 0 175.7 43.5"><path d="M69 0h8.9l-7.5 43.5h-8.9L69 0zm53.2 0h8.9l-7.5 43.5h-8.9L122.2 0zM80.6 0h8.9l-6 35h7.7l-1.5 8.5H73.1L80.6 0zm18.9 0h15.4l4.4 5.5-1.9 11.1-4.9 4.5 4.1 4.1-2 11.5-7.4 6.8H91.9L99.5 0zm5.1 17.2h3.7l1.5-8.7h-3.7l-1.5 8.7zm2.2 8.5h-3.7l-1.6 9.3h3.7l1.6-9.3zM148 0l4.8 6-1.4 7.9h-8.9l.9-5.4h-3.3l-1.5 8.7h6.2l4.9 6.5-2.3 13.6-6.8 6.2h-9.4l-4.8-6.4 1.4-8.1h8.9l-1 6h3.3l1.6-9.3h-6.1l-5-6.6 2.1-12.3 7.1-6.8h9.3zm23 0l4.8 6-1.4 7.9h-8.9l.9-5.4h-3.3l-1.5 8.7h6.2l4.9 6.5-2.3 13.6-6.8 6.2h-9.4l-4.8-6.4 1.4-8.1h8.9l-1 6h3.3l1.6-9.3h-6.1l-5-6.6 2.1-12.3 7.1-6.8h9.3zM44.9 0h8.9l-3.6 35.4 9-35.4h8.9L55.5 43.5H42.3L44.9 0zM32 36.8h6l-1.2 6.7H23.7l6-34.7h13.2l-1.2 6.7h-6l-1.1 6.2h5l-1.2 6.7h-5L32 36.8zM7.5 0h15.3L28 6.5l-5.3 30.7-6.9 6.3H0L7.5 0zm6.8 8.5L9.7 35h3.7L18 8.6h-3.7v-.1z"/></svg>