<svg xmlns="http://www.w3.org/2000/svg" viewBox="0 0 24.15 19.031">
  <path d="M1294.06,356.98h-2.64l-4.92-4.872a0.519,0.519,0,0,0-.73,0,0.513,0.513,0,0,0,0,.725l4.19,4.146h-14.64l4.18-4.146a0.5,0.5,0,0,0,.01-0.725,0.519,0.519,0,0,0-.73,0l-4.92,4.872h-2.93a0.513,0.513,0,0,0,0,1.025h0.82l1.84,10.341a3.233,3.233,0,0,0,3.19,2.648h11.32a3.215,3.215,0,0,0,3.18-2.648l1.85-10.341h0.93A0.513,0.513,0,0,0,1294.06,356.98ZM1285.01,363h-1.89v-1.878a0.625,0.625,0,0,0-1.25,0V363h-1.89a0.621,0.621,0,1,0,0,1.241h1.89v1.878a0.625,0.625,0,0,0,1.25,0v-1.878h1.89A0.621,0.621,0,1,0,1285.01,363Z" transform="translate(-1270.41 -351.969)"/>
</svg>
