<svg xmlns="http://www.w3.org/2000/svg" viewBox="0 0 175.7 43.5">
  <path d="M69,0h8.9l-7.5,43.5h-8.9L69,0L69,0z M122.2,0h8.9l-7.5,43.5h-8.9L122.2,0L122.2,0z M80.6,0h8.9l-6,35h7.7l-1.5,8.5H82h-4.8h-4.1L80.6,0L80.6,0z M99.5,0h15.4l4.4,5.5l-1.9,11.1l-4.9,4.5l4.1,4.1l-2,11.5l-7.4,6.8H91.9L99.5,0L99.5,0z M104.6,17.2h3.7l1.5-8.7h-3.7L104.6,17.2L104.6,17.2z M106.8,25.7h-3.7l-1.6,9.3h3.7L106.8,25.7L106.8,25.7z M148,0l4.8,6l-1.4,7.9h-8.9l0.9-5.4h-3.3l-1.5,8.7h3.3h1.3h1.6l4.9,6.5l-2.3,13.6l-6.8,6.2h-9.4l-4.8-6.4l1.4-8.1h8.9l-1,6h3.3l1.6-9.3h-3.3l0,0h-2.8l-5-6.6l2.1-12.3l7.1-6.8H148L148,0z M171,0l4.8,6l-1.4,7.9h-8.9l0.9-5.4h-3.3l-1.5,8.7h3.3h1.3h1.6l4.9,6.5l-2.3,13.6l-6.8,6.2h-9.4l-4.8-6.4l1.4-8.1h8.9l-1,6h3.3l1.6-9.3h-3.3l0,0h-2.8l-5-6.6l2.1-12.3l7.1-6.8H171L171,0z M44.9,0h8.9l-3.6,35.4l9-35.4h8.9L55.5,43.5H42.3L44.9,0L44.9,0z M32,36.8h6l-1.2,6.7H23.7l6-34.7h13.2l-1.2,6.7h-6l-1.1,6.2h5l-1.2,6.7h-5L32,36.8L32,36.8z M7.5,0h15.3L28,6.5l-5.3,30.7l-6.9,6.3H0L7.5,0L7.5,0z M14.3,8.5L9.7,35h3.7l4.6-26.4H14.3L14.3,8.5z"/>
</svg>
